<?xml version="1.0" encoding="UTF-8" standalone="no"?>
<!DOCTYPE svg PUBLIC "-//W3C//DTD SVG 1.1//EN"
 "http://www.w3.org/Graphics/SVG/1.1/DTD/svg11.dtd">
<!-- Generated by graphviz version 11.0.0 (20240428.1522)
 -->
<!-- Pages: 1 -->
<svg width="875pt" height="316pt"
 viewBox="0.00 0.00 875.00 315.90" xmlns="http://www.w3.org/2000/svg" xmlns:xlink="http://www.w3.org/1999/xlink">
<g id="graph0" class="graph" transform="scale(0.523013 0.523013) rotate(0) translate(4 600)">
<polygon fill="white" stroke="none" points="-4,4 -4,-600 1669,-600 1669,4 -4,4"/>
<!-- 2509599797712 -->
<g id="node1" class="node">
<title>2509599797712</title>
<polygon fill="#caff70" stroke="black" points="404,-32 350,-32 350,0 404,0 404,-32"/>
<text text-anchor="middle" x="377" y="-6.5" font-family="monospace" font-size="10.00"> (256)</text>
</g>
<!-- 2509599894704 -->
<g id="node2" class="node">
<title>2509599894704</title>
<polygon fill="lightgrey" stroke="black" points="433,-88 321,-88 321,-68 433,-68 433,-88"/>
<text text-anchor="middle" x="377" y="-74.5" font-family="monospace" font-size="10.00">SigmoidBackward0</text>
</g>
<!-- 2509599894704&#45;&gt;2509599797712 -->
<g id="edge40" class="edge">
<title>2509599894704&#45;&gt;2509599797712</title>
<path fill="none" stroke="black" d="M377,-67.62C377,-61.1 377,-52.05 377,-43.4"/>
<polygon fill="black" stroke="black" points="380.5,-43.65 377,-33.65 373.5,-43.65 380.5,-43.65"/>
</g>
<!-- 2509599892256 -->
<g id="node3" class="node">
<title>2509599892256</title>
<polygon fill="lightgrey" stroke="black" points="424,-144 330,-144 330,-124 424,-124 424,-144"/>
<text text-anchor="middle" x="377" y="-130.5" font-family="monospace" font-size="10.00">ViewBackward0</text>
</g>
<!-- 2509599892256&#45;&gt;2509599894704 -->
<g id="edge1" class="edge">
<title>2509599892256&#45;&gt;2509599894704</title>
<path fill="none" stroke="black" d="M377,-123.59C377,-117.01 377,-107.96 377,-99.73"/>
<polygon fill="black" stroke="black" points="380.5,-99.81 377,-89.81 373.5,-99.81 380.5,-99.81"/>
</g>
<!-- 2509599895712 -->
<g id="node4" class="node">
<title>2509599895712</title>
<polygon fill="lightgrey" stroke="black" points="427,-200 327,-200 327,-180 427,-180 427,-200"/>
<text text-anchor="middle" x="377" y="-186.5" font-family="monospace" font-size="10.00">AddmmBackward0</text>
</g>
<!-- 2509599895712&#45;&gt;2509599892256 -->
<g id="edge2" class="edge">
<title>2509599895712&#45;&gt;2509599892256</title>
<path fill="none" stroke="black" d="M377,-179.59C377,-173.01 377,-163.96 377,-155.73"/>
<polygon fill="black" stroke="black" points="380.5,-155.81 377,-145.81 373.5,-155.81 380.5,-155.81"/>
</g>
<!-- 2509599896048 -->
<g id="node5" class="node">
<title>2509599896048</title>
<polygon fill="lightgrey" stroke="black" points="306,-256 206,-256 206,-236 306,-236 306,-256"/>
<text text-anchor="middle" x="256" y="-242.5" font-family="monospace" font-size="10.00">AccumulateGrad</text>
</g>
<!-- 2509599896048&#45;&gt;2509599895712 -->
<g id="edge3" class="edge">
<title>2509599896048&#45;&gt;2509599895712</title>
<path fill="none" stroke="black" d="M277.08,-235.59C295.96,-227.17 323.92,-214.69 345.46,-205.07"/>
<polygon fill="black" stroke="black" points="346.67,-208.37 354.38,-201.1 343.82,-201.98 346.67,-208.37"/>
</g>
<!-- 2509151288592 -->
<g id="node6" class="node">
<title>2509151288592</title>
<polygon fill="lightblue" stroke="black" points="285,-324 227,-324 227,-292 285,-292 285,-324"/>
<text text-anchor="middle" x="256" y="-310.5" font-family="monospace" font-size="10.00">fc.bias</text>
<text text-anchor="middle" x="256" y="-298.5" font-family="monospace" font-size="10.00"> (1)</text>
</g>
<!-- 2509151288592&#45;&gt;2509599896048 -->
<g id="edge4" class="edge">
<title>2509151288592&#45;&gt;2509599896048</title>
<path fill="none" stroke="black" d="M256,-291.55C256,-284.34 256,-275.66 256,-267.88"/>
<polygon fill="black" stroke="black" points="259.5,-267.92 256,-257.92 252.5,-267.92 259.5,-267.92"/>
</g>
<!-- 2509599891824 -->
<g id="node7" class="node">
<title>2509599891824</title>
<polygon fill="lightgrey" stroke="black" points="430,-256 324,-256 324,-236 430,-236 430,-256"/>
<text text-anchor="middle" x="377" y="-242.5" font-family="monospace" font-size="10.00">SelectBackward0</text>
</g>
<!-- 2509599891824&#45;&gt;2509599895712 -->
<g id="edge5" class="edge">
<title>2509599891824&#45;&gt;2509599895712</title>
<path fill="none" stroke="black" d="M377,-235.59C377,-229.01 377,-219.96 377,-211.73"/>
<polygon fill="black" stroke="black" points="380.5,-211.81 377,-201.81 373.5,-211.81 380.5,-211.81"/>
</g>
<!-- 2509599897104 -->
<g id="node8" class="node">
<title>2509599897104</title>
<polygon fill="lightgrey" stroke="black" points="428,-318 310,-318 310,-298 428,-298 428,-318"/>
<text text-anchor="middle" x="369" y="-304.5" font-family="monospace" font-size="10.00">CudnnRnnBackward0</text>
</g>
<!-- 2509599897104&#45;&gt;2509599891824 -->
<g id="edge6" class="edge">
<title>2509599897104&#45;&gt;2509599891824</title>
<path fill="none" stroke="black" d="M370.25,-297.62C371.32,-289.56 372.91,-277.65 374.28,-267.41"/>
<polygon fill="black" stroke="black" points="377.73,-267.99 375.58,-257.61 370.79,-267.06 377.73,-267.99"/>
</g>
<!-- 2509599894128 -->
<g id="node9" class="node">
<title>2509599894128</title>
<polygon fill="lightgrey" stroke="black" points="112,-386 12,-386 12,-366 112,-366 112,-386"/>
<text text-anchor="middle" x="62" y="-372.5" font-family="monospace" font-size="10.00">AccumulateGrad</text>
</g>
<!-- 2509599894128&#45;&gt;2509599897104 -->
<g id="edge7" class="edge">
<title>2509599894128&#45;&gt;2509599897104</title>
<path fill="none" stroke="black" d="M104.79,-365.51C113.15,-363.67 121.85,-361.77 130,-360 192.57,-346.42 264.42,-331.13 312.87,-320.86"/>
<polygon fill="black" stroke="black" points="313.51,-324.31 322.57,-318.81 312.06,-317.46 313.51,-324.31"/>
</g>
<!-- 2509151287632 -->
<g id="node10" class="node">
<title>2509151287632</title>
<polygon fill="lightblue" stroke="black" points="112,-460 0,-460 0,-428 112,-428 112,-460"/>
<text text-anchor="middle" x="56" y="-446.5" font-family="monospace" font-size="10.00">rnn.weight_ih_l0</text>
<text text-anchor="middle" x="56" y="-434.5" font-family="monospace" font-size="10.00"> (512, 11)</text>
</g>
<!-- 2509151287632&#45;&gt;2509599894128 -->
<g id="edge8" class="edge">
<title>2509151287632&#45;&gt;2509599894128</title>
<path fill="none" stroke="black" d="M57.39,-427.69C58.2,-418.8 59.23,-407.46 60.11,-397.77"/>
<polygon fill="black" stroke="black" points="63.6,-398.1 61.02,-387.82 56.62,-397.47 63.6,-398.1"/>
</g>
<!-- 2509599899408 -->
<g id="node11" class="node">
<title>2509599899408</title>
<polygon fill="lightgrey" stroke="black" points="239,-386 139,-386 139,-366 239,-366 239,-386"/>
<text text-anchor="middle" x="189" y="-372.5" font-family="monospace" font-size="10.00">AccumulateGrad</text>
</g>
<!-- 2509599899408&#45;&gt;2509599897104 -->
<g id="edge9" class="edge">
<title>2509599899408&#45;&gt;2509599897104</title>
<path fill="none" stroke="black" d="M214.79,-365.54C245.67,-354.22 297.58,-335.19 332.55,-322.37"/>
<polygon fill="black" stroke="black" points="333.65,-325.69 341.84,-318.96 331.24,-319.12 333.65,-325.69"/>
</g>
<!-- 2509151288208 -->
<g id="node12" class="node">
<title>2509151288208</title>
<polygon fill="lightblue" stroke="black" points="242,-460 130,-460 130,-428 242,-428 242,-460"/>
<text text-anchor="middle" x="186" y="-446.5" font-family="monospace" font-size="10.00">rnn.weight_hh_l0</text>
<text text-anchor="middle" x="186" y="-434.5" font-family="monospace" font-size="10.00"> (512, 512)</text>
</g>
<!-- 2509151288208&#45;&gt;2509599899408 -->
<g id="edge10" class="edge">
<title>2509151288208&#45;&gt;2509599899408</title>
<path fill="none" stroke="black" d="M186.7,-427.69C187.1,-418.8 187.62,-407.46 188.06,-397.77"/>
<polygon fill="black" stroke="black" points="191.55,-397.98 188.51,-387.83 184.56,-397.66 191.55,-397.98"/>
</g>
<!-- 2509599892832 -->
<g id="node13" class="node">
<title>2509599892832</title>
<polygon fill="lightgrey" stroke="black" points="360,-386 260,-386 260,-366 360,-366 360,-386"/>
<text text-anchor="middle" x="310" y="-372.5" font-family="monospace" font-size="10.00">AccumulateGrad</text>
</g>
<!-- 2509599892832&#45;&gt;2509599897104 -->
<g id="edge11" class="edge">
<title>2509599892832&#45;&gt;2509599897104</title>
<path fill="none" stroke="black" d="M318.45,-365.54C327.48,-355.45 341.99,-339.22 353.15,-326.73"/>
<polygon fill="black" stroke="black" points="355.5,-329.36 359.55,-319.57 350.28,-324.69 355.5,-329.36"/>
</g>
<!-- 2509151288304 -->
<g id="node14" class="node">
<title>2509151288304</title>
<polygon fill="lightblue" stroke="black" points="360,-460 260,-460 260,-428 360,-428 360,-460"/>
<text text-anchor="middle" x="310" y="-446.5" font-family="monospace" font-size="10.00">rnn.bias_ih_l0</text>
<text text-anchor="middle" x="310" y="-434.5" font-family="monospace" font-size="10.00"> (512)</text>
</g>
<!-- 2509151288304&#45;&gt;2509599892832 -->
<g id="edge12" class="edge">
<title>2509151288304&#45;&gt;2509599892832</title>
<path fill="none" stroke="black" d="M310,-427.69C310,-418.8 310,-407.46 310,-397.77"/>
<polygon fill="black" stroke="black" points="313.5,-397.83 310,-387.83 306.5,-397.83 313.5,-397.83"/>
</g>
<!-- 2509599893936 -->
<g id="node15" class="node">
<title>2509599893936</title>
<polygon fill="lightgrey" stroke="black" points="478,-386 378,-386 378,-366 478,-366 478,-386"/>
<text text-anchor="middle" x="428" y="-372.5" font-family="monospace" font-size="10.00">AccumulateGrad</text>
</g>
<!-- 2509599893936&#45;&gt;2509599897104 -->
<g id="edge13" class="edge">
<title>2509599893936&#45;&gt;2509599897104</title>
<path fill="none" stroke="black" d="M419.55,-365.54C410.52,-355.45 396.01,-339.22 384.85,-326.73"/>
<polygon fill="black" stroke="black" points="387.72,-324.69 378.45,-319.57 382.5,-329.36 387.72,-324.69"/>
</g>
<!-- 2509151288400 -->
<g id="node16" class="node">
<title>2509151288400</title>
<polygon fill="lightblue" stroke="black" points="478,-460 378,-460 378,-428 478,-428 478,-460"/>
<text text-anchor="middle" x="428" y="-446.5" font-family="monospace" font-size="10.00">rnn.bias_hh_l0</text>
<text text-anchor="middle" x="428" y="-434.5" font-family="monospace" font-size="10.00"> (512)</text>
</g>
<!-- 2509151288400&#45;&gt;2509599893936 -->
<g id="edge14" class="edge">
<title>2509151288400&#45;&gt;2509599893936</title>
<path fill="none" stroke="black" d="M428,-427.69C428,-418.8 428,-407.46 428,-397.77"/>
<polygon fill="black" stroke="black" points="431.5,-397.83 428,-387.83 424.5,-397.83 431.5,-397.83"/>
</g>
<!-- 2509599897920 -->
<g id="node17" class="node">
<title>2509599897920</title>
<polygon fill="lightgrey" stroke="black" points="723,-386 605,-386 605,-366 723,-366 723,-386"/>
<text text-anchor="middle" x="664" y="-372.5" font-family="monospace" font-size="10.00">CudnnRnnBackward0</text>
</g>
<!-- 2509599897920&#45;&gt;2509599897104 -->
<g id="edge15" class="edge">
<title>2509599897920&#45;&gt;2509599897104</title>
<path fill="none" stroke="black" d="M621.73,-365.54C569.16,-353.78 479.37,-333.69 422.17,-320.9"/>
<polygon fill="black" stroke="black" points="423.19,-317.54 412.66,-318.77 421.66,-324.37 423.19,-317.54"/>
</g>
<!-- 2509599896192 -->
<g id="node18" class="node">
<title>2509599896192</title>
<polygon fill="lightgrey" stroke="black" points="596,-454 496,-454 496,-434 596,-434 596,-454"/>
<text text-anchor="middle" x="546" y="-440.5" font-family="monospace" font-size="10.00">AccumulateGrad</text>
</g>
<!-- 2509599896192&#45;&gt;2509599897920 -->
<g id="edge16" class="edge">
<title>2509599896192&#45;&gt;2509599897920</title>
<path fill="none" stroke="black" d="M562.91,-433.54C582.36,-422.66 614.55,-404.66 637.38,-391.89"/>
<polygon fill="black" stroke="black" points="638.78,-395.11 645.8,-387.18 635.37,-389 638.78,-395.11"/>
</g>
<!-- 2509151287728 -->
<g id="node19" class="node">
<title>2509151287728</title>
<polygon fill="lightblue" stroke="black" points="584,-528 472,-528 472,-496 584,-496 584,-528"/>
<text text-anchor="middle" x="528" y="-514.5" font-family="monospace" font-size="10.00">gru.weight_ih_l0</text>
<text text-anchor="middle" x="528" y="-502.5" font-family="monospace" font-size="10.00"> (1536, 11)</text>
</g>
<!-- 2509151287728&#45;&gt;2509599896192 -->
<g id="edge17" class="edge">
<title>2509151287728&#45;&gt;2509599896192</title>
<path fill="none" stroke="black" d="M532.17,-495.69C534.66,-486.6 537.83,-474.95 540.51,-465.12"/>
<polygon fill="black" stroke="black" points="543.81,-466.34 543.06,-455.78 537.05,-464.5 543.81,-466.34"/>
</g>
<!-- 2509599892064 -->
<g id="node20" class="node">
<title>2509599892064</title>
<polygon fill="lightgrey" stroke="black" points="714,-454 614,-454 614,-434 714,-434 714,-454"/>
<text text-anchor="middle" x="664" y="-440.5" font-family="monospace" font-size="10.00">AccumulateGrad</text>
</g>
<!-- 2509599892064&#45;&gt;2509599897920 -->
<g id="edge18" class="edge">
<title>2509599892064&#45;&gt;2509599897920</title>
<path fill="none" stroke="black" d="M664,-433.54C664,-424.23 664,-409.7 664,-397.7"/>
<polygon fill="black" stroke="black" points="667.5,-397.95 664,-387.95 660.5,-397.95 667.5,-397.95"/>
</g>
<!-- 2509151287824 -->
<g id="node21" class="node">
<title>2509151287824</title>
<polygon fill="lightblue" stroke="black" points="714,-528 602,-528 602,-496 714,-496 714,-528"/>
<text text-anchor="middle" x="658" y="-514.5" font-family="monospace" font-size="10.00">gru.weight_hh_l0</text>
<text text-anchor="middle" x="658" y="-502.5" font-family="monospace" font-size="10.00"> (1536, 512)</text>
</g>
<!-- 2509151287824&#45;&gt;2509599892064 -->
<g id="edge19" class="edge">
<title>2509151287824&#45;&gt;2509599892064</title>
<path fill="none" stroke="black" d="M659.39,-495.69C660.2,-486.8 661.23,-475.46 662.11,-465.77"/>
<polygon fill="black" stroke="black" points="665.6,-466.1 663.02,-455.82 658.62,-465.47 665.6,-466.1"/>
</g>
<!-- 2509599896336 -->
<g id="node22" class="node">
<title>2509599896336</title>
<polygon fill="lightgrey" stroke="black" points="832,-454 732,-454 732,-434 832,-434 832,-454"/>
<text text-anchor="middle" x="782" y="-440.5" font-family="monospace" font-size="10.00">AccumulateGrad</text>
</g>
<!-- 2509599896336&#45;&gt;2509599897920 -->
<g id="edge20" class="edge">
<title>2509599896336&#45;&gt;2509599897920</title>
<path fill="none" stroke="black" d="M765.09,-433.54C745.64,-422.66 713.45,-404.66 690.62,-391.89"/>
<polygon fill="black" stroke="black" points="692.63,-389 682.2,-387.18 689.22,-395.11 692.63,-389"/>
</g>
<!-- 2509151287920 -->
<g id="node23" class="node">
<title>2509151287920</title>
<polygon fill="lightblue" stroke="black" points="832,-528 732,-528 732,-496 832,-496 832,-528"/>
<text text-anchor="middle" x="782" y="-514.5" font-family="monospace" font-size="10.00">gru.bias_ih_l0</text>
<text text-anchor="middle" x="782" y="-502.5" font-family="monospace" font-size="10.00"> (1536)</text>
</g>
<!-- 2509151287920&#45;&gt;2509599896336 -->
<g id="edge21" class="edge">
<title>2509151287920&#45;&gt;2509599896336</title>
<path fill="none" stroke="black" d="M782,-495.69C782,-486.8 782,-475.46 782,-465.77"/>
<polygon fill="black" stroke="black" points="785.5,-465.83 782,-455.83 778.5,-465.83 785.5,-465.83"/>
</g>
<!-- 2509599898016 -->
<g id="node24" class="node">
<title>2509599898016</title>
<polygon fill="lightgrey" stroke="black" points="950,-454 850,-454 850,-434 950,-434 950,-454"/>
<text text-anchor="middle" x="900" y="-440.5" font-family="monospace" font-size="10.00">AccumulateGrad</text>
</g>
<!-- 2509599898016&#45;&gt;2509599897920 -->
<g id="edge22" class="edge">
<title>2509599898016&#45;&gt;2509599897920</title>
<path fill="none" stroke="black" d="M866.19,-433.54C824.74,-421.95 754.38,-402.28 708.56,-389.46"/>
<polygon fill="black" stroke="black" points="709.78,-386.17 699.21,-386.85 707.9,-392.91 709.78,-386.17"/>
</g>
<!-- 2509151288016 -->
<g id="node25" class="node">
<title>2509151288016</title>
<polygon fill="lightblue" stroke="black" points="950,-528 850,-528 850,-496 950,-496 950,-528"/>
<text text-anchor="middle" x="900" y="-514.5" font-family="monospace" font-size="10.00">gru.bias_hh_l0</text>
<text text-anchor="middle" x="900" y="-502.5" font-family="monospace" font-size="10.00"> (1536)</text>
</g>
<!-- 2509151288016&#45;&gt;2509599898016 -->
<g id="edge23" class="edge">
<title>2509151288016&#45;&gt;2509599898016</title>
<path fill="none" stroke="black" d="M900,-495.69C900,-486.8 900,-475.46 900,-465.77"/>
<polygon fill="black" stroke="black" points="903.5,-465.83 900,-455.83 896.5,-465.83 903.5,-465.83"/>
</g>
<!-- 2509599897824 -->
<g id="node26" class="node">
<title>2509599897824</title>
<polygon fill="lightgrey" stroke="black" points="1313,-454 1195,-454 1195,-434 1313,-434 1313,-454"/>
<text text-anchor="middle" x="1254" y="-440.5" font-family="monospace" font-size="10.00">CudnnRnnBackward0</text>
</g>
<!-- 2509599897824&#45;&gt;2509599897920 -->
<g id="edge24" class="edge">
<title>2509599897824&#45;&gt;2509599897920</title>
<path fill="none" stroke="black" d="M1194.6,-439.52C1097.43,-433.31 898.6,-418.42 732,-392 726.1,-391.07 719.95,-389.93 713.87,-388.71"/>
<polygon fill="black" stroke="black" points="715.03,-385.38 704.52,-386.76 713.6,-392.23 715.03,-385.38"/>
</g>
<!-- 2509599897392 -->
<g id="node27" class="node">
<title>2509599897392</title>
<polygon fill="lightgrey" stroke="black" points="1068,-522 968,-522 968,-502 1068,-502 1068,-522"/>
<text text-anchor="middle" x="1018" y="-508.5" font-family="monospace" font-size="10.00">AccumulateGrad</text>
</g>
<!-- 2509599897392&#45;&gt;2509599897824 -->
<g id="edge25" class="edge">
<title>2509599897392&#45;&gt;2509599897824</title>
<path fill="none" stroke="black" d="M1051.81,-501.54C1093.26,-489.95 1163.62,-470.28 1209.44,-457.46"/>
<polygon fill="black" stroke="black" points="1210.1,-460.91 1218.79,-454.85 1208.22,-454.17 1210.1,-460.91"/>
</g>
<!-- 2509151287152 -->
<g id="node28" class="node">
<title>2509151287152</title>
<polygon fill="lightblue" stroke="black" points="1045,-596 927,-596 927,-564 1045,-564 1045,-596"/>
<text text-anchor="middle" x="986" y="-582.5" font-family="monospace" font-size="10.00">lstm.weight_ih_l0</text>
<text text-anchor="middle" x="986" y="-570.5" font-family="monospace" font-size="10.00"> (2048, 11)</text>
</g>
<!-- 2509151287152&#45;&gt;2509599897392 -->
<g id="edge26" class="edge">
<title>2509151287152&#45;&gt;2509599897392</title>
<path fill="none" stroke="black" d="M993.42,-563.69C997.93,-554.4 1003.73,-542.44 1008.56,-532.47"/>
<polygon fill="black" stroke="black" points="1011.61,-534.2 1012.82,-523.68 1005.31,-531.15 1011.61,-534.2"/>
</g>
<!-- 2509599895760 -->
<g id="node29" class="node">
<title>2509599895760</title>
<polygon fill="lightgrey" stroke="black" points="1186,-522 1086,-522 1086,-502 1186,-502 1186,-522"/>
<text text-anchor="middle" x="1136" y="-508.5" font-family="monospace" font-size="10.00">AccumulateGrad</text>
</g>
<!-- 2509599895760&#45;&gt;2509599897824 -->
<g id="edge27" class="edge">
<title>2509599895760&#45;&gt;2509599897824</title>
<path fill="none" stroke="black" d="M1152.91,-501.54C1172.36,-490.66 1204.55,-472.66 1227.38,-459.89"/>
<polygon fill="black" stroke="black" points="1228.78,-463.11 1235.8,-455.18 1225.37,-457 1228.78,-463.11"/>
</g>
<!-- 2509151284944 -->
<g id="node30" class="node">
<title>2509151284944</title>
<polygon fill="lightblue" stroke="black" points="1181,-596 1063,-596 1063,-564 1181,-564 1181,-596"/>
<text text-anchor="middle" x="1122" y="-582.5" font-family="monospace" font-size="10.00">lstm.weight_hh_l0</text>
<text text-anchor="middle" x="1122" y="-570.5" font-family="monospace" font-size="10.00"> (2048, 512)</text>
</g>
<!-- 2509151284944&#45;&gt;2509599895760 -->
<g id="edge28" class="edge">
<title>2509151284944&#45;&gt;2509599895760</title>
<path fill="none" stroke="black" d="M1125.25,-563.69C1127.16,-554.7 1129.59,-543.21 1131.66,-533.44"/>
<polygon fill="black" stroke="black" points="1135.06,-534.31 1133.71,-523.8 1128.21,-532.85 1135.06,-534.31"/>
</g>
<!-- 2509599891680 -->
<g id="node31" class="node">
<title>2509599891680</title>
<polygon fill="lightgrey" stroke="black" points="1304,-522 1204,-522 1204,-502 1304,-502 1304,-522"/>
<text text-anchor="middle" x="1254" y="-508.5" font-family="monospace" font-size="10.00">AccumulateGrad</text>
</g>
<!-- 2509599891680&#45;&gt;2509599897824 -->
<g id="edge29" class="edge">
<title>2509599891680&#45;&gt;2509599897824</title>
<path fill="none" stroke="black" d="M1254,-501.54C1254,-492.23 1254,-477.7 1254,-465.7"/>
<polygon fill="black" stroke="black" points="1257.5,-465.95 1254,-455.95 1250.5,-465.95 1257.5,-465.95"/>
</g>
<!-- 2509151287344 -->
<g id="node32" class="node">
<title>2509151287344</title>
<polygon fill="lightblue" stroke="black" points="1305,-596 1199,-596 1199,-564 1305,-564 1305,-596"/>
<text text-anchor="middle" x="1252" y="-582.5" font-family="monospace" font-size="10.00">lstm.bias_ih_l0</text>
<text text-anchor="middle" x="1252" y="-570.5" font-family="monospace" font-size="10.00"> (2048)</text>
</g>
<!-- 2509151287344&#45;&gt;2509599891680 -->
<g id="edge30" class="edge">
<title>2509151287344&#45;&gt;2509599891680</title>
<path fill="none" stroke="black" d="M1252.46,-563.69C1252.73,-554.8 1253.08,-543.46 1253.37,-533.77"/>
<polygon fill="black" stroke="black" points="1256.87,-533.93 1253.67,-523.83 1249.87,-533.72 1256.87,-533.93"/>
</g>
<!-- 2509599897632 -->
<g id="node33" class="node">
<title>2509599897632</title>
<polygon fill="lightgrey" stroke="black" points="1423,-522 1323,-522 1323,-502 1423,-502 1423,-522"/>
<text text-anchor="middle" x="1373" y="-508.5" font-family="monospace" font-size="10.00">AccumulateGrad</text>
</g>
<!-- 2509599897632&#45;&gt;2509599897824 -->
<g id="edge31" class="edge">
<title>2509599897632&#45;&gt;2509599897824</title>
<path fill="none" stroke="black" d="M1355.95,-501.54C1336.33,-490.66 1303.87,-472.66 1280.85,-459.89"/>
<polygon fill="black" stroke="black" points="1282.78,-456.96 1272.34,-455.17 1279.39,-463.08 1282.78,-456.96"/>
</g>
<!-- 2509151287440 -->
<g id="node34" class="node">
<title>2509151287440</title>
<polygon fill="lightblue" stroke="black" points="1429,-596 1323,-596 1323,-564 1429,-564 1429,-596"/>
<text text-anchor="middle" x="1376" y="-582.5" font-family="monospace" font-size="10.00">lstm.bias_hh_l0</text>
<text text-anchor="middle" x="1376" y="-570.5" font-family="monospace" font-size="10.00"> (2048)</text>
</g>
<!-- 2509151287440&#45;&gt;2509599897632 -->
<g id="edge32" class="edge">
<title>2509151287440&#45;&gt;2509599897632</title>
<path fill="none" stroke="black" d="M1375.3,-563.69C1374.9,-554.8 1374.38,-543.46 1373.94,-533.77"/>
<polygon fill="black" stroke="black" points="1377.44,-533.66 1373.49,-523.83 1370.45,-533.98 1377.44,-533.66"/>
</g>
<!-- 2509599897152 -->
<g id="node35" class="node">
<title>2509599897152</title>
<polygon fill="lightgrey" stroke="black" points="1544,-522 1444,-522 1444,-502 1544,-502 1544,-522"/>
<text text-anchor="middle" x="1494" y="-508.5" font-family="monospace" font-size="10.00">AccumulateGrad</text>
</g>
<!-- 2509599897152&#45;&gt;2509599897824 -->
<g id="edge33" class="edge">
<title>2509599897152&#45;&gt;2509599897824</title>
<path fill="none" stroke="black" d="M1459.61,-501.54C1417.47,-489.95 1345.91,-470.28 1299.31,-457.46"/>
<polygon fill="black" stroke="black" points="1300.35,-454.12 1289.78,-454.84 1298.5,-460.87 1300.35,-454.12"/>
</g>
<!-- 2509600070768 -->
<g id="node36" class="node">
<title>2509600070768</title>
<polygon fill="lightblue" stroke="black" points="1547,-596 1447,-596 1447,-564 1547,-564 1547,-596"/>
<text text-anchor="middle" x="1497" y="-570.5" font-family="monospace" font-size="10.00"> (1, 256, 512)</text>
</g>
<!-- 2509600070768&#45;&gt;2509599897152 -->
<g id="edge34" class="edge">
<title>2509600070768&#45;&gt;2509599897152</title>
<path fill="none" stroke="black" d="M1496.3,-563.69C1495.9,-554.8 1495.38,-543.46 1494.94,-533.77"/>
<polygon fill="black" stroke="black" points="1498.44,-533.66 1494.49,-523.83 1491.45,-533.98 1498.44,-533.66"/>
</g>
<!-- 2509599897248 -->
<g id="node37" class="node">
<title>2509599897248</title>
<polygon fill="lightgrey" stroke="black" points="1663,-522 1563,-522 1563,-502 1663,-502 1663,-522"/>
<text text-anchor="middle" x="1613" y="-508.5" font-family="monospace" font-size="10.00">AccumulateGrad</text>
</g>
<!-- 2509599897248&#45;&gt;2509599897824 -->
<g id="edge35" class="edge">
<title>2509599897248&#45;&gt;2509599897824</title>
<path fill="none" stroke="black" d="M1576.93,-501.51C1569.07,-499.57 1560.78,-497.63 1553,-496 1475.29,-479.68 1385.4,-464.9 1324.63,-455.5"/>
<polygon fill="black" stroke="black" points="1325.16,-452.04 1314.75,-453.98 1324.1,-458.96 1325.16,-452.04"/>
</g>
<!-- 2509600063664 -->
<g id="node38" class="node">
<title>2509600063664</title>
<polygon fill="lightblue" stroke="black" points="1665,-596 1565,-596 1565,-564 1665,-564 1665,-596"/>
<text text-anchor="middle" x="1615" y="-570.5" font-family="monospace" font-size="10.00"> (1, 256, 512)</text>
</g>
<!-- 2509600063664&#45;&gt;2509599897248 -->
<g id="edge36" class="edge">
<title>2509600063664&#45;&gt;2509599897248</title>
<path fill="none" stroke="black" d="M1614.54,-563.69C1614.27,-554.8 1613.92,-543.46 1613.63,-533.77"/>
<polygon fill="black" stroke="black" points="1617.13,-533.72 1613.33,-523.83 1610.13,-533.93 1617.13,-533.72"/>
</g>
<!-- 2509599896912 -->
<g id="node39" class="node">
<title>2509599896912</title>
<polygon fill="lightgrey" stroke="black" points="613,-256 537,-256 537,-236 613,-236 613,-256"/>
<text text-anchor="middle" x="575" y="-242.5" font-family="monospace" font-size="10.00">TBackward0</text>
</g>
<!-- 2509599896912&#45;&gt;2509599895712 -->
<g id="edge37" class="edge">
<title>2509599896912&#45;&gt;2509599895712</title>
<path fill="none" stroke="black" d="M540.51,-235.59C507.78,-226.67 458.38,-213.19 422.44,-203.39"/>
<polygon fill="black" stroke="black" points="423.79,-200.13 413.22,-200.88 421.95,-206.89 423.79,-200.13"/>
</g>
<!-- 2509599895952 -->
<g id="node40" class="node">
<title>2509599895952</title>
<polygon fill="lightgrey" stroke="black" points="715,-318 615,-318 615,-298 715,-298 715,-318"/>
<text text-anchor="middle" x="665" y="-304.5" font-family="monospace" font-size="10.00">AccumulateGrad</text>
</g>
<!-- 2509599895952&#45;&gt;2509599896912 -->
<g id="edge38" class="edge">
<title>2509599895952&#45;&gt;2509599896912</title>
<path fill="none" stroke="black" d="M650.94,-297.62C636.8,-288.2 614.78,-273.52 598.08,-262.39"/>
<polygon fill="black" stroke="black" points="600.49,-259.78 590.22,-257.15 596.6,-265.61 600.49,-259.78"/>
</g>
<!-- 2509151288112 -->
<g id="node41" class="node">
<title>2509151288112</title>
<polygon fill="lightblue" stroke="black" points="811,-392 741,-392 741,-360 811,-360 811,-392"/>
<text text-anchor="middle" x="776" y="-378.5" font-family="monospace" font-size="10.00">fc.weight</text>
<text text-anchor="middle" x="776" y="-366.5" font-family="monospace" font-size="10.00"> (1, 512)</text>
</g>
<!-- 2509151288112&#45;&gt;2509599895952 -->
<g id="edge39" class="edge">
<title>2509151288112&#45;&gt;2509599895952</title>
<path fill="none" stroke="black" d="M749.98,-359.53C732.08,-348.89 708.44,-334.83 690.63,-324.24"/>
<polygon fill="black" stroke="black" points="692.6,-321.34 682.21,-319.23 689.02,-327.35 692.6,-321.34"/>
</g>
</g>
</svg>
